{
	"asset":{
		"generator":"Khronos glTF Blender I/O v3.6.28",
		"version":"2.0"
	},
	"extensionsUsed":[
		"KHR_materials_clearcoat",
		"KHR_materials_specular",
		"KHR_materials_ior"
	],
	"scene":0,
	"scenes":[
		{
			"name":"Scene",
			"nodes":[
				0,
				1,
				2
			]
		}
	],
	"nodes":[
		{
			"mesh":0,
			"name":"Plane"
		},
		{
			"mesh":1,
			"name":"Plane.001",
			"translation":[
				0,
				-0.07226914167404175,
				0
			]
		},
		{
			"mesh":2,
			"name":"Plane.002",
			"translation":[
				0,
				-0.07226914167404175,
				0
			]
		}
	],
	"materials":[
		{
			"doubleSided":true,
			"extensions":{
				"KHR_materials_clearcoat":{
					"clearcoatFactor":0.18110236525535583,
					"clearcoatRoughnessFactor":0.0457480326294899
				},
				"KHR_materials_specular":{
					"specularColorFactor":[
						0.7562203343790637,
						0.7562203343790637,
						0.7562203343790637
					]
				},
				"KHR_materials_ior":{
					"ior":1.4500000476837158
				}
			},
			"name":"Material.001",
			"pbrMetallicRoughness":{
				"baseColorFactor":[
					0.009018057025969028,
					0.009018057025969028,
					0.009018057025969028,
					1
				],
				"metallicFactor":0.4488189220428467,
				"roughnessFactor":0.34251970052719116
			}
		},
		{
			"doubleSided":true,
			"name":"Material.002",
			"pbrMetallicRoughness":{
				"baseColorTexture":{
					"index":0
				},
				"metallicFactor":0,
				"roughnessFactor":0.5
			}
		}
	],
	"meshes":[
		{
			"name":"Plane",
			"primitives":[
				{
					"attributes":{
						"POSITION":0,
						"NORMAL":1,
						"TEXCOORD_0":2
					},
					"indices":3,
					"material":0
				}
			]
		},
		{
			"name":"Plane.001",
			"primitives":[
				{
					"attributes":{
						"POSITION":4,
						"NORMAL":5,
						"TEXCOORD_0":6
					},
					"indices":7,
					"material":1
				}
			]
		},
		{
			"name":"Plane.002",
			"primitives":[
				{
					"attributes":{
						"POSITION":8,
						"NORMAL":9,
						"TEXCOORD_0":10
					},
					"indices":11
				}
			]
		}
	],
	"textures":[
		{
			"sampler":0,
			"source":0
		}
	],
	"images":[
		{
			"mimeType":"image/jpeg",
			"name":"bild",
			"uri":"bild.jpg"
		}
	],
	"accessors":[
		{
			"bufferView":0,
			"componentType":5126,
			"count":60,
			"max":[
				2.4262802600860596,
				0.08490455150604248,
				1
			],
			"min":[
				-2.4262802600860596,
				0,
				-1
			],
			"type":"VEC3"
		},
		{
			"bufferView":1,
			"componentType":5126,
			"count":60,
			"type":"VEC3"
		},
		{
			"bufferView":2,
			"componentType":5126,
			"count":60,
			"type":"VEC2"
		},
		{
			"bufferView":3,
			"componentType":5123,
			"count":144,
			"type":"SCALAR"
		},
		{
			"bufferView":4,
			"componentType":5126,
			"count":4,
			"max":[
				2.294874668121338,
				0.08490455150604248,
				0.8685943484306335
			],
			"min":[
				-2.294874668121338,
				0.08490455150604248,
				-0.8685943484306335
			],
			"type":"VEC3"
		},
		{
			"bufferView":5,
			"componentType":5126,
			"count":4,
			"type":"VEC3"
		},
		{
			"bufferView":6,
			"componentType":5126,
			"count":4,
			"type":"VEC2"
		},
		{
			"bufferView":7,
			"componentType":5123,
			"count":6,
			"type":"SCALAR"
		},
		{
			"bufferView":8,
			"componentType":5126,
			"count":48,
			"max":[
				2.294874668121338,
				0.1194211095571518,
				0.8685943484306335
			],
			"min":[
				-2.294874668121338,
				0.08490455150604248,
				-0.8685943484306335
			],
			"type":"VEC3"
		},
		{
			"bufferView":9,
			"componentType":5126,
			"count":48,
			"type":"VEC3"
		},
		{
			"bufferView":10,
			"componentType":5126,
			"count":48,
			"type":"VEC2"
		},
		{
			"bufferView":11,
			"componentType":5123,
			"count":96,
			"type":"SCALAR"
		}
	],
	"bufferViews":[
		{
			"buffer":0,
			"byteLength":720,
			"byteOffset":0,
			"target":34962
		},
		{
			"buffer":0,
			"byteLength":720,
			"byteOffset":720,
			"target":34962
		},
		{
			"buffer":0,
			"byteLength":480,
			"byteOffset":1440,
			"target":34962
		},
		{
			"buffer":0,
			"byteLength":288,
			"byteOffset":1920,
			"target":34963
		},
		{
			"buffer":0,
			"byteLength":48,
			"byteOffset":2208,
			"target":34962
		},
		{
			"buffer":0,
			"byteLength":48,
			"byteOffset":2256,
			"target":34962
		},
		{
			"buffer":0,
			"byteLength":32,
			"byteOffset":2304,
			"target":34962
		},
		{
			"buffer":0,
			"byteLength":12,
			"byteOffset":2336,
			"target":34963
		},
		{
			"buffer":0,
			"byteLength":576,
			"byteOffset":2348,
			"target":34962
		},
		{
			"buffer":0,
			"byteLength":576,
			"byteOffset":2924,
			"target":34962
		},
		{
			"buffer":0,
			"byteLength":384,
			"byteOffset":3500,
			"target":34962
		},
		{
			"buffer":0,
			"byteLength":192,
			"byteOffset":3884,
			"target":34963
		}
	],
	"samplers":[
		{
			"magFilter":9729,
			"minFilter":9987
		}
	],
	"buffers":[
		{
			"byteLength":4076,
			"uri":"framed_image.bin"
		}
	]
}
