{
    "asset" : {
        "generator" : "Khronos glTF Blender I/O v3.2.40",
        "version" : "2.0"
    },
    "scene" : 0,
    "scenes" : [
        {
            "name" : "Scene",
            "nodes" : [
                5
            ]
        }
    ],
    "nodes" : [
        {
            "mesh" : 0,
            "name" : "Cube_Frame_0"
        },
        {
            "mesh" : 1,
            "name" : "Cube_Poster_0"
        },
        {
            "children" : [
                0,
                1
            ],
            "name" : "Cube",
            "rotation" : [
                -0.7071068286895752,
                0,
                0,
                0.7071067094802856
            ],
            "scale" : [
                19.999998092651367,
                0.49999985098838806,
                39.99999237060547
            ],
            "translation" : [
                0,
                44.23051071166992,
                0
            ]
        },
        {
            "children" : [
                2
            ],
            "name" : "RootNode"
        },
        {
            "children" : [
                3
            ],
            "name" : "b4e35eeb695e4e679f18cc2ed1ed884d.fbx",
            "rotation" : [
                0.7071068286895752,
                0,
                0,
                0.7071067094802856
            ],
            "scale" : [
                0.009999999776482582,
                0.009999996982514858,
                0.009999996982514858
            ]
        },
        {
            "children" : [
                4
            ],
            "name" : "Sketchfab_model",
            "rotation" : [
                -0.7071068286895752,
                0,
                0,
                0.7071067094802856
            ],
            "scale" : [
                1.1094286441802979,
                1,
                1
            ]
        }
    ],
    "materials" : [
        {
            "doubleSided" : true,
            "name" : "Frame",
            "pbrMetallicRoughness" : {
                "baseColorFactor" : [
                    0.15232600271701813,
                    0.15232600271701813,
                    0.15232600271701813,
                    1
                ],
                "metallicFactor" : 0,
                "roughnessFactor" : 0.9659388661384583
            }
        },
        {
            "doubleSided" : true,
            "name" : "haibao",
            "pbrMetallicRoughness" : {
                "metallicFactor" : 0,
                "roughnessFactor" : 0.8493227958679199
            }
        }
    ],
    "meshes" : [
        {
            "name" : "Cube_Frame_0",
            "primitives" : [
                {
                    "attributes" : {
                        "POSITION" : 0,
                        "NORMAL" : 1,
                        "TEXCOORD_0" : 2
                    },
                    "indices" : 3,
                    "material" : 0
                }
            ]
        },
        {
            "name" : "Cube_Poster_0",
            "primitives" : [
                {
                    "attributes" : {
                        "POSITION" : 4,
                        "NORMAL" : 5,
                        "TEXCOORD_0" : 6
                    },
                    "indices" : 7,
                    "material" : 1
                }
            ]
        }
    ],
    "accessors" : [
        {
            "bufferView" : 0,
            "componentType" : 5126,
            "count" : 168,
            "max" : [
                1.1558349132537842,
                1,
                1.0752663612365723
            ],
            "min" : [
                -1.1558349132537842,
                -3.5674705505371094,
                -1.080509066581726
            ],
            "type" : "VEC3"
        },
        {
            "bufferView" : 1,
            "componentType" : 5126,
            "count" : 168,
            "type" : "VEC3"
        },
        {
            "bufferView" : 2,
            "componentType" : 5126,
            "count" : 168,
            "type" : "VEC2"
        },
        {
            "bufferView" : 3,
            "componentType" : 5123,
            "count" : 204,
            "type" : "SCALAR"
        },
        {
            "bufferView" : 4,
            "componentType" : 5126,
            "count" : 4,
            "max" : [
                1.00028395652771,
                -1,
                1
            ],
            "min" : [
                -1.00028395652771,
                -1,
                -1
            ],
            "type" : "VEC3"
        },
        {
            "bufferView" : 5,
            "componentType" : 5126,
            "count" : 4,
            "type" : "VEC3"
        },
        {
            "bufferView" : 6,
            "componentType" : 5126,
            "count" : 4,
            "type" : "VEC2"
        },
        {
            "bufferView" : 7,
            "componentType" : 5123,
            "count" : 6,
            "type" : "SCALAR"
        }
    ],
    "bufferViews" : [
        {
            "buffer" : 0,
            "byteLength" : 2016,
            "byteOffset" : 0
        },
        {
            "buffer" : 0,
            "byteLength" : 2016,
            "byteOffset" : 2016
        },
        {
            "buffer" : 0,
            "byteLength" : 1344,
            "byteOffset" : 4032
        },
        {
            "buffer" : 0,
            "byteLength" : 408,
            "byteOffset" : 5376
        },
        {
            "buffer" : 0,
            "byteLength" : 48,
            "byteOffset" : 5784
        },
        {
            "buffer" : 0,
            "byteLength" : 48,
            "byteOffset" : 5832
        },
        {
            "buffer" : 0,
            "byteLength" : 32,
            "byteOffset" : 5880
        },
        {
            "buffer" : 0,
            "byteLength" : 12,
            "byteOffset" : 5912
        }
    ],
    "buffers" : [
        {
            "byteLength" : 5924,
            "uri" : "sss.bin"
        }
    ]
}
